:FULLY-SPECIFIED
:FORCE-ALL-JOINTS-BE-3DOF
:DEGREES
102
root -2.84076 16.509 -36.1876 3.16829 0.177436 -2.2023
lfemur -21.166 5.87176 -9.25522
ltibia 44.4641 0 0
lfoot -21.7242 0.0963549 0
ltoes -8.01008 0 0
rfemur -21.7578 -5.80804 13.6791
rtibia 47.2522 0 0
rfoot -25.6278 1.61533 0
rtoes -6.75945 0 0
lowerback 7.59826 1.97346 -1.74471
upperback -3.61437 2.54808 1.21849
thorax -8.21888 1.37659 1.89333
lowerneck -2.58052 -3.7852 -6.61017
upperneck 5.94145 -5.11605 5.96726
head 2.75098 -2.53319 2.96631
lclavicle -3.27477e-14 -1.81072e-14 0
lhumerus -26.7996 -4.1485 89.7848
lradius 24.9365 0 0
lwrist -30.2209 0 0
lhand -28.7658 30.3794 0
lfingers 7.12502 0 0
lthumb -2.12558 60.3486 0
rclavicle -3.27477e-14 -1.81072e-14 0
rhumerus -32.4647 3.14229 -80.269
rradius 30.8198 0 0
rwrist 2.53925 0 0
rhand -20.1345 -27.6559 0
rfingers 7.12502 0 0
rthumb 6.21 -57.5449 0
103
root -2.83913 16.5084 -36.1856 3.16451 0.180345 -2.20569
lfemur -21.1644 5.87081 -9.25035
ltibia 44.4643 0 0
lfoot -21.7224 0.0932581 0
ltoes -8.00826 0 0
rfemur -21.7534 -5.80749 13.6839
rtibia 47.2506 0 0
rfoot -25.6255 1.61091 0
rtoes -6.7633 0 0
lowerback 7.60802 1.97296 -1.7438
upperback -3.61336 2.54745 1.21902
thorax -8.22343 1.37626 1.89318
lowerneck -2.58008 -3.78602 -6.60968
upperneck 5.93448 -5.11708 5.96915
head 2.74869 -2.53363 2.96682
lclavicle -3.24554e-14 -1.80668e-14 0
lhumerus -26.7994 -4.15066 89.7835
lradius 24.9392 0 0
lwrist -30.2191 0 0
lhand -28.7627 30.3769 0
lfingers 7.12502 0 0
lthumb -2.12252 60.346 0
rclavicle -3.24554e-14 -1.80668e-14 0
rhumerus -32.4666 3.13922 -80.2712
rradius 30.8195 0 0
rwrist 2.53733 0 0
rhand -20.1403 -27.6474 0
rfingers 7.12502 0 0
rthumb 6.20435 -57.5365 0
104
root -2.8375 16.5078 -36.1837 3.1576 0.185023 -2.21112
lfemur -21.1608 5.86918 -9.24233
ltibia 44.4642 0 0
lfoot -21.7192 0.088052 0
ltoes -8.00485 0 0
rfemur -21.7456 -5.80635 13.6917
rtibia 47.2478 0 0
rfoot -25.6215 1.60364 0
rtoes -6.76933 0 0
lowerback 7.62518 1.97216 -1.74214
upperback -3.61133 2.54645 1.21986
thorax -8.23114 1.37571 1.89279
lowerneck -2.57935 -3.78736 -6.60898
upperneck 5.92243 -5.11873 5.97226
head 2.74472 -2.53434 2.96768
lclavicle -3.19737e-14 -1.79913e-14 0
lhumerus -26.7988 -4.15439 89.7811
lradius 24.9436 0 0
lwrist -30.2161 0 0
lhand -28.7577 30.3726 0
lfingers 7.12502 0 0
lthumb -2.11771 60.3419 0
rclavicle -3.19737e-14 -1.79913e-14 0
rhumerus -32.4697 3.13459 -80.2749
rradius 30.8191 0 0
rwrist 2.53414 0 0
rhand -20.1498 -27.6338 0
rfingers 7.12502 0 0
rthumb 6.19518 -57.5232 0
105
root -2.83587 16.5073 -36.1817 3.15313 0.192993 -2.22052
lfemur -21.1623 5.86728 -9.2303
ltibia 44.4673 0 0
lfoot -21.7172 0.0811392 0
ltoes -8.00337 0 0
rfemur -21.7393 -5.80649 13.7041
rtibia 47.2448 0 0
rfoot -25.6172 1.59251 0
rtoes -6.78095 0 0
lowerback 7.6418 1.97073 -1.74111
upperback -3.61139 2.54462 1.2214
thorax -8.24082 1.37485 1.89359
lowerneck -2.57836 -3.78956 -6.60699
upperneck 5.90916 -5.12168 5.97707
head 2.74041 -2.53562 2.96883
lclavicle -3.12535e-14 -1.79543e-14 0
lhumerus -26.7997 -4.15863 89.7781
lradius 24.951 0 0
lwrist -30.2112 0 0
lhand -28.7483 30.366 0
lfingers 7.12502 0 0
lthumb -2.10861 60.3353 0
rclavicle -3.12535e-14 -1.79543e-14 0
rhumerus -32.4755 3.12402 -80.2792
rradius 30.8182 0 0
rwrist 2.52967 0 0
rhand -20.1654 -27.6101 0
rfingers 7.12502 0 0
rthumb 6.18015 -57.4999 0
106
root -2.83423 16.5068 -36.1797 3.15669 0.205777 -2.2358
lfemur -21.1758 5.86553 -9.21337
ltibia 44.4768 0 0
lfoot -21.7192 0.0729221 0
ltoes -8.00736 0 0
rfemur -21.7396 -5.80974 13.7227
rtibia 47.2427 0 0
rfoot -25.6139 1.57645 0
rtoes -6.8016 0 0
lowerback 7.64996 1.96834 -1.74207
upperback -3.61664 2.54152 1.22402
thorax -8.25124 1.37358 1.89703
lowerneck -2.57713 -3.79296 -6.60264
upperneck 5.89851 -5.12662 5.98408
head 2.73708 -2.53779 2.97023
lclavicle -3.02459e-14 -1.80293e-14 0
lhumerus -26.8037 -4.16233 89.7744
lradius 24.963 0 0
lwrist -30.2032 0 0
lhand -28.7318 30.3563 0
lfingers 7.12502 0 0
lthumb -2.0927 60.3257 0
rclavicle -3.02459e-14 -1.80293e-14 0
rhumerus -32.4859 3.10313 -80.2832
rradius 30.8162 0 0
rwrist 2.52394 0 0
rhand -20.1895 -27.5714 0
rfingers 7.12502 0 0
rthumb 6.15689 -57.4619 0
107
root -2.8326 16.5062 -36.1778 3.17387 0.224895 -2.25886
lfemur -21.2083 5.86434 -9.19067
ltibia 44.4961 0 0
lfoot -21.7279 0.0638033 0
ltoes -8.02037 0 0
rfemur -21.7515 -5.81797 13.7491
rtibia 47.2424 0 0
rfoot -25.6128 1.55443 0
rtoes -6.83467 0 0
lowerback 7.64173 1.96466 -1.74642
upperback -3.63018 2.5367 1.22813
thorax -8.26122 1.37182 1.90458
lowerneck -2.57568 -3.79791 -6.59485
upperneck 5.89433 -5.13424 5.99377
head 2.73607 -2.54115 2.97181
lclavicle -2.89017e-14 -1.829e-14 0
lhumerus -26.8125 -4.16443 89.7702
lradius 24.9808 0 0
lwrist -30.1914 0 0
lhand -28.7057 30.3426 0
lfingers 7.12502 0 0
lthumb -2.06745 60.3122 0
rclavicle -2.89017e-14 -1.829e-14 0
rhumerus -32.5026 3.06754 -80.2858
rradius 30.8129 0 0
rwrist 2.51694 0 0
rhand -20.2246 -27.5129 0
rfingers 7.12502 0 0
rthumb 6.12302 -57.4043 0
